<svg width="158" height="158" viewBox="0 0 158 158" fill="none" xmlns="http://www.w3.org/2000/svg">
<circle cx="79.024" cy="79.9267" r="50.7661" transform="rotate(-1.89822 79.024 79.9267)" stroke="#FF70B5" stroke-width="0.93578"/>
<circle cx="78.992" cy="78.9924" r="76.0321" transform="rotate(-1.89822 78.992 78.9924)" stroke="#FF70B5" stroke-width="0.93578"/>
<path d="M25.2478 44.5377C24.9248 44.4864 24.619 44.4833 24.3304 44.5285C24.0379 44.5719 23.7644 44.6644 23.5101 44.806C23.2538 44.9419 23.0194 45.126 22.807 45.3581C22.5965 45.5864 22.4128 45.8627 22.2558 46.1869C21.9625 46.793 21.8563 47.3964 21.9371 47.9972C22.0198 48.5941 22.2891 49.155 22.7449 49.6799C23.1968 50.203 23.8386 50.6585 24.6704 51.0464C25.5021 51.4344 26.2702 51.6389 26.9746 51.6599C27.679 51.6809 28.2959 51.5333 28.8252 51.2171C29.3507 50.8992 29.7648 50.4275 30.0674 49.8021C30.342 49.2347 30.4754 48.7031 30.4676 48.2073C30.4578 47.7059 30.3177 47.2621 30.0473 46.8757C29.7788 46.4855 29.39 46.1717 28.8809 45.9342L29.2033 45.46L27.7237 48.5173L25.8231 47.6308L28.2247 42.6684L29.7288 43.37C30.7782 43.8595 31.5734 44.5001 32.1144 45.2918C32.6515 46.0818 32.9373 46.958 32.9718 47.9204C33.0023 48.881 32.7766 49.8592 32.2946 50.8552C31.7566 51.9669 31.0372 52.8285 30.1363 53.4398C29.2316 54.0493 28.2085 54.3765 27.0673 54.4214C25.924 54.4607 24.7227 54.1867 23.4635 53.5993C22.4957 53.1479 21.7002 52.6065 21.0768 51.9751C20.4514 51.3379 19.9968 50.6433 19.7129 49.891C19.4291 49.1388 19.3117 48.3625 19.3608 47.5621C19.41 46.7617 19.6241 45.9696 20.0034 45.186C20.3284 44.5143 20.7302 43.9352 21.2086 43.4486C21.6832 42.9602 22.2076 42.5755 22.7819 42.2945C23.358 42.0096 23.962 41.8394 24.5939 41.784C25.2218 41.7268 25.8508 41.7954 26.4808 41.9899L25.2478 44.5377Z" fill="#FF70B5"/>
<path d="M38.8809 40.7558C38.465 41.2295 38.0109 41.581 37.5187 41.8103C37.0232 42.0367 36.5154 42.1179 35.9954 42.0538C35.475 41.9837 34.9661 41.738 34.4688 41.3166C34.05 40.9617 33.7647 40.5879 33.6131 40.1952C33.4614 39.8025 33.4134 39.4022 33.4692 38.9942C33.525 38.5862 33.6544 38.1787 33.8575 37.7719C34.0634 37.3619 34.3096 36.9579 34.5961 36.56C34.9295 36.0893 35.1925 35.7052 35.3852 35.4077C35.5747 35.1073 35.6809 34.8629 35.7038 34.6743C35.7266 34.4858 35.6579 34.3236 35.4976 34.1877L35.4682 34.1628C35.1573 33.8994 34.832 33.7923 34.4921 33.8415C34.155 33.8875 33.8323 34.0861 33.5239 34.4374C33.1985 34.808 33.0231 35.1736 32.9976 35.5342C32.9688 35.892 33.0476 36.2117 33.234 36.4933L31.4048 38.2649C31.0317 37.7801 30.8027 37.2544 30.718 36.688C30.6299 36.1188 30.6926 35.534 30.9059 34.9335C31.1188 34.3271 31.4855 33.7273 32.0061 33.1343C32.3682 32.7218 32.7639 32.3686 33.1931 32.0747C33.6251 31.7775 34.0729 31.5697 34.5365 31.4511C35.0029 31.3292 35.473 31.3201 35.9469 31.4238C36.4175 31.5247 36.8769 31.7651 37.3251 32.1449L42.4096 36.4535L40.695 38.4065L39.6497 37.5207L39.5987 37.5787C39.7296 37.8976 39.7973 38.2332 39.8019 38.5855C39.8031 38.935 39.7314 39.293 39.5867 39.6593C39.4387 40.0229 39.2034 40.3884 38.8809 40.7558ZM37.9558 38.9433C38.2217 38.6403 38.396 38.3215 38.4787 37.9869C38.5581 37.6495 38.5511 37.326 38.4577 37.0164C38.3643 36.7069 38.1851 36.4398 37.92 36.2152L37.1201 35.5373C37.106 35.6378 37.0675 35.7597 37.0044 35.903C36.941 36.0403 36.8631 36.1907 36.7709 36.3543C36.6754 36.515 36.5783 36.6744 36.4795 36.8324C36.3775 36.9876 36.2852 37.1286 36.2025 37.2552C36.0263 37.5274 35.8982 37.7871 35.8183 38.0341C35.7384 38.2811 35.7217 38.5114 35.7681 38.725C35.8113 38.9358 35.931 39.1244 36.1273 39.2907C36.412 39.532 36.7187 39.6148 37.0474 39.5393C37.3757 39.4578 37.6785 39.2591 37.9558 38.9433Z" fill="#FF70B5"/>
<path d="M47.9003 26.9809L44.585 22.3765L46.8345 20.8113L52.6079 28.8299L50.4483 30.3327L49.3996 28.8761L49.3151 28.9349C49.4703 29.5321 49.4377 30.1216 49.2173 30.7034C49.0003 31.2827 48.5873 31.7843 47.9783 32.208C47.4362 32.5852 46.8715 32.7953 46.2843 32.8383C45.697 32.8813 45.1255 32.7591 44.57 32.4718C44.0179 32.1821 43.5146 31.7252 43.06 31.1012L39.3839 25.9956L41.6333 24.4304L45.0237 29.1392C45.3681 29.6101 45.7659 29.8948 46.2173 29.9934C46.6688 30.092 47.1074 29.9931 47.5334 29.6967C47.8045 29.5081 48.0141 29.2708 48.1622 28.9849C48.3079 28.6955 48.3651 28.3788 48.3341 28.0347C48.3065 27.6882 48.1619 27.3369 47.9003 26.9809Z" fill="#FF70B5"/>
<path d="M56.0893 27.1859L52.1749 18.1135L54.6265 17.0898L55.3095 18.6727L55.4045 18.6331C55.3277 18.0006 55.4232 17.4588 55.691 17.0077C55.957 16.5528 56.3453 16.2187 56.8558 16.0055C56.9825 15.9526 57.1224 15.9035 57.2756 15.8581C57.4288 15.8127 57.5668 15.7806 57.6895 15.7619L58.6528 17.9946C58.5188 18.0087 58.341 18.0458 58.1193 18.1058C57.8977 18.1659 57.6998 18.2322 57.5257 18.3049C57.1537 18.4603 56.8561 18.6798 56.6329 18.9635C56.412 19.2417 56.2776 19.558 56.2298 19.9126C56.1859 20.2655 56.2438 20.627 56.4035 20.9972L58.6181 26.13L56.0893 27.1859Z" fill="#FF70B5"/>
<path d="M67.3846 23.5489C66.7657 23.6687 66.1928 23.6683 65.6658 23.5475C65.138 23.4226 64.6907 23.1751 64.3239 22.8049C63.9605 22.4297 63.715 21.9225 63.5875 21.2832C63.4802 20.7449 63.489 20.2736 63.6139 19.8694C63.7388 19.4652 63.9496 19.1186 64.2462 18.8296C64.5428 18.5407 64.8966 18.2974 65.3076 18.0999C65.7228 17.9016 66.1658 17.7328 66.6366 17.5936C67.189 17.4254 67.6328 17.2827 67.968 17.1654C68.3024 17.0438 68.537 16.9154 68.6718 16.7801C68.8066 16.6448 68.8535 16.4741 68.8124 16.268L68.8048 16.2302C68.7251 15.8306 68.5372 15.5459 68.241 15.3762C67.9489 15.2056 67.5735 15.1647 67.1145 15.2536C66.6303 15.3473 66.2665 15.5292 66.0229 15.7991C65.7786 16.0649 65.6419 16.3665 65.613 16.7041L63.0845 16.9841C63.0934 16.3708 63.2403 15.8138 63.5253 15.3131C63.8094 14.8081 64.221 14.3833 64.7601 14.0387C65.3026 13.689 65.9612 13.4392 66.7359 13.2891C67.2748 13.1848 67.8032 13.148 68.321 13.1788C68.843 13.2087 69.3219 13.3191 69.7579 13.5099C70.1981 13.6998 70.5713 13.9814 70.8775 14.3545C71.1828 14.7235 71.3929 15.1961 71.5078 15.7722L72.8111 22.308L70.2596 22.8021L69.9917 21.4584L69.9159 21.473C69.8205 21.806 69.6653 22.1134 69.4504 22.3953C69.2346 22.673 68.9566 22.9125 68.6163 23.1138C68.2752 23.3109 67.8646 23.4559 67.3846 23.5489ZM67.7853 21.5449C68.181 21.4683 68.515 21.3228 68.7871 21.1085C69.0584 20.8899 69.2535 20.6294 69.3724 20.3268C69.4914 20.0242 69.5169 19.7026 69.449 19.3619L69.2439 18.3336C69.1706 18.4046 69.0649 18.4775 68.9268 18.5523C68.792 18.622 68.6379 18.6934 68.4644 18.7663C68.29 18.835 68.1153 18.9016 67.9401 18.9661C67.7641 19.0264 67.6045 19.0813 67.4613 19.1309C67.1548 19.2383 66.8937 19.3653 66.678 19.5119C66.4624 19.6585 66.3065 19.8307 66.2103 20.0284C66.1134 20.2219 66.09 20.4448 66.1404 20.6971C66.2133 21.063 66.4017 21.317 66.7055 21.4591C67.0127 21.5962 67.3727 21.6248 67.7853 21.5449Z" fill="#FF70B5"/>
<path d="M79.5681 16.3961L79.2794 22.1012L76.5421 21.9705L77.0414 12.1023L79.6502 12.2268L79.5621 13.9679L79.6778 13.9734C79.9253 13.4099 80.3145 12.9733 80.8455 12.6638C81.3766 12.35 82.0085 12.2105 82.741 12.2455C83.4264 12.2782 84.0164 12.4566 84.5109 12.7808C85.0055 13.1049 85.3801 13.5521 85.6347 14.1224C85.8894 14.6884 85.9974 15.3548 85.9586 16.1214L85.6407 22.4047L82.9034 22.2741L83.1966 16.4791C83.2315 15.8754 83.1011 15.3969 82.8055 15.0436C82.5101 14.686 82.0883 14.4941 81.54 14.468C81.1716 14.4504 80.842 14.5141 80.5513 14.6591C80.2648 14.8043 80.0346 15.0251 79.8607 15.3217C79.6914 15.6141 79.5938 15.9723 79.5681 16.3961Z" fill="#FF70B5"/>
<path d="M97.1112 14.9428L96.5721 16.9295L90.8145 15.4271L91.3536 13.4404L97.1112 14.9428ZM93.2806 11.4968L95.9322 12.1887L93.52 21.0792C93.4537 21.3234 93.4394 21.5235 93.4771 21.6796C93.5158 21.8315 93.5943 21.9517 93.7125 22.0402C93.8348 22.1297 93.9852 22.1977 94.1636 22.2443C94.2881 22.2768 94.4154 22.2989 94.5455 22.3107C94.6768 22.3184 94.7772 22.3246 94.847 22.3296L94.7301 24.4064C94.586 24.4132 94.3864 24.412 94.1311 24.4031C93.8747 24.3982 93.5726 24.357 93.2248 24.2796C92.5791 24.1377 92.0419 23.9066 91.6133 23.5865C91.1889 23.2674 90.8995 22.8684 90.7451 22.3893C90.5907 21.9103 90.6003 21.3588 90.7741 20.7349L93.2806 11.4968Z" fill="#FF70B5"/>
<path d="M101.81 27.6534C100.899 27.2021 100.209 26.6306 99.7404 25.9388C99.2774 25.2451 99.0426 24.4731 99.0362 23.6228C99.0317 22.7687 99.2677 21.8782 99.7442 20.9514C100.209 20.0475 100.793 19.3418 101.498 18.8342C102.202 18.3267 102.974 18.0413 103.811 17.9779C104.653 17.9164 105.508 18.1008 106.377 18.5312C106.961 18.8207 107.456 19.1836 107.864 19.6199C108.277 20.0544 108.576 20.5499 108.763 21.1065C108.953 21.665 109.01 22.2769 108.933 22.9423C108.858 23.6039 108.628 24.3085 108.244 25.056L107.9 25.7254L100.424 22.0206L101.2 20.5102L106.365 23.0696C106.545 22.7187 106.628 22.3698 106.614 22.0228C106.599 21.6758 106.495 21.3585 106.3 21.0707C106.112 20.781 105.839 20.5476 105.482 20.3705C105.109 20.1858 104.734 20.1078 104.358 20.1367C103.987 20.1636 103.648 20.28 103.339 20.4861C103.033 20.6884 102.788 20.9621 102.606 21.3073L101.868 22.7433C101.644 23.1781 101.532 23.5937 101.53 23.9903C101.533 24.3887 101.64 24.7481 101.851 25.0682C102.063 25.3884 102.374 25.6504 102.785 25.8541C103.058 25.9893 103.328 26.075 103.594 26.111C103.859 26.1471 104.112 26.1289 104.352 26.0563C104.592 25.9837 104.811 25.8577 105.009 25.6784L107.204 26.9526C106.81 27.4371 106.331 27.7929 105.765 28.0201C105.206 28.2454 104.588 28.3315 103.911 28.2785C103.24 28.2236 102.54 28.0153 101.81 27.6534Z" fill="#FF70B5"/>
<path d="M112.197 34.3928C111.421 33.7366 110.888 33.0169 110.6 32.2337C110.317 31.4501 110.275 30.6454 110.474 29.8196C110.676 28.9906 111.12 28.1842 111.806 27.4003C112.476 26.6357 113.214 26.092 114.022 25.7693C114.829 25.4465 115.647 25.3551 116.476 25.4949C117.309 25.6374 118.096 26.0216 118.836 26.6474C119.333 27.0682 119.728 27.5391 120.018 28.0599C120.315 28.5802 120.487 29.1325 120.534 29.7168C120.584 30.3039 120.491 30.9106 120.256 31.5372C120.023 32.1605 119.63 32.7883 119.076 33.4206L118.581 33.9867L112.209 28.5999L113.328 27.3224L117.73 31.0437C117.99 30.7469 118.154 30.4286 118.224 30.0888C118.294 29.749 118.269 29.4163 118.149 29.0907C118.036 28.7646 117.827 28.4728 117.522 28.2153C117.205 27.9467 116.859 27.7812 116.487 27.7187C116.12 27.6557 115.762 27.6871 115.412 27.8127C115.066 27.9352 114.762 28.1418 114.502 28.4326L113.438 29.6472C113.116 30.015 112.906 30.3909 112.809 30.775C112.716 31.1618 112.733 31.5358 112.861 31.8969C112.989 32.2581 113.229 32.5868 113.579 32.8831C113.812 33.0796 114.053 33.2274 114.303 33.3262C114.552 33.425 114.803 33.4681 115.053 33.4553C115.304 33.4426 115.547 33.3731 115.783 33.2469L117.608 35.0091C117.109 35.3842 116.557 35.6139 115.953 35.6984C115.355 35.7824 114.733 35.7174 114.088 35.5035C113.45 35.2891 112.819 34.9189 112.197 34.3928Z" fill="#FF70B5"/>
<path d="M120.157 42.6717C119.722 42.06 119.487 41.3967 119.453 40.6818C119.424 39.9679 119.618 39.2523 120.034 38.5347C120.456 37.8183 121.121 37.148 122.029 36.5239C122.962 35.8828 123.844 35.4984 124.674 35.3705C125.507 35.2402 126.253 35.3159 126.91 35.5975C127.574 35.8801 128.116 36.3168 128.536 36.9076C128.857 37.3585 129.046 37.7877 129.104 38.1951C129.168 38.6036 129.151 38.9795 129.053 39.3226C128.961 39.6667 128.84 39.963 128.691 40.2115L128.739 40.2796L132.822 37.4749L134.406 39.7032L123.547 47.1632L121.982 44.961L123.286 44.065L123.219 43.9706C122.918 44.0211 122.588 44.0268 122.229 43.9875C121.875 43.9493 121.518 43.828 121.157 43.6234C120.798 43.4224 120.465 43.1051 120.157 42.6717ZM122.458 42.1447C122.714 42.5047 123.029 42.7408 123.403 42.853C123.783 42.9663 124.201 42.9655 124.656 42.8506C125.114 42.7392 125.584 42.5172 126.069 42.1845C126.553 41.8518 126.926 41.4964 127.189 41.1184C127.452 40.7403 127.591 40.3586 127.606 39.9734C127.622 39.5881 127.501 39.2155 127.246 38.8555C126.985 38.4884 126.664 38.2483 126.284 38.135C125.903 38.0218 125.489 38.0231 125.04 38.1391C124.591 38.255 124.131 38.4745 123.661 38.7974C123.187 39.1228 122.814 39.4753 122.542 39.8547C122.276 40.2352 122.129 40.62 122.1 41.009C122.078 41.3991 122.197 41.7777 122.458 42.1447Z" fill="#FF70B5"/>
<path d="M21.5482 116.841L32.0275 108.857L35.1776 112.991C35.7806 113.783 36.1537 114.566 36.2968 115.341C36.4459 116.117 36.3747 116.848 36.0831 117.534C35.7975 118.22 35.3085 118.828 34.616 119.355C33.9201 119.885 33.2071 120.191 32.4769 120.273C31.7502 120.353 31.0367 120.209 30.3366 119.842C29.6391 119.478 28.9836 118.894 28.3702 118.089L26.2611 115.321L28.0417 113.964L29.878 116.374C30.2003 116.797 30.526 117.104 30.8551 117.296C31.1842 117.487 31.5167 117.562 31.8526 117.522C32.1912 117.485 32.5327 117.336 32.8772 117.073C33.2252 116.808 33.4653 116.514 33.5975 116.193C33.7323 115.874 33.7533 115.527 33.6603 115.15C33.5734 114.774 33.3675 114.373 33.0426 113.947L31.9042 112.453L23.2363 119.057L21.5482 116.841ZM30.629 118.867L27.8445 125.105L25.9809 122.659L28.8083 116.477L30.629 118.867Z" fill="#FF70B5"/>
<path d="M34.032 131.163C33.2651 130.496 32.7401 129.766 32.4571 128.975C32.18 128.182 32.1418 127.37 32.3423 126.538C32.5456 125.704 32.9893 124.893 33.6733 124.107C34.3404 123.34 35.0747 122.796 35.8762 122.476C36.6777 122.156 37.4893 122.069 38.3112 122.216C39.1362 122.365 39.9144 122.758 40.6456 123.394C41.1374 123.822 41.5263 124.299 41.8123 124.826C42.1043 125.353 42.2723 125.911 42.3164 126.501C42.3637 127.094 42.2694 127.705 42.0336 128.336C41.8006 128.963 41.4083 129.594 40.8566 130.228L40.3626 130.796L34.0677 125.32L35.1823 124.038L39.531 127.821C39.79 127.524 39.9547 127.204 40.0251 126.861C40.0955 126.519 40.0721 126.183 39.955 125.854C39.8439 125.524 39.6379 125.228 39.337 124.967C39.0231 124.694 38.6815 124.524 38.3122 124.459C37.9489 124.393 37.5938 124.422 37.2468 124.547C36.9026 124.668 36.6008 124.874 36.3414 125.166L35.2817 126.384C34.9608 126.753 34.7515 127.131 34.6538 127.518C34.5593 127.907 34.5749 128.285 34.7006 128.65C34.8264 129.015 35.0623 129.348 35.4085 129.649C35.6383 129.849 35.8767 130 36.1239 130.101C36.3711 130.202 36.619 130.247 36.8675 130.236C37.1159 130.225 37.3574 130.157 37.5918 130.031L39.3943 131.82C38.8976 132.196 38.3495 132.424 37.7503 132.505C37.1571 132.586 36.5412 132.516 35.9027 132.296C35.2703 132.075 34.6467 131.698 34.032 131.163Z" fill="#FF70B5"/>
<path d="M39.3463 139.776L46.0384 127.952L48.3897 129.283L47.5722 130.727L47.6786 130.788C47.9141 130.615 48.1983 130.466 48.5313 130.339C48.8702 130.21 49.2455 130.157 49.6573 130.178C50.0749 130.197 50.5245 130.343 51.0059 130.616C51.633 130.971 52.1185 131.462 52.4626 132.091C52.8088 132.716 52.9546 133.446 52.9001 134.283C52.8476 135.115 52.5426 136.024 51.9849 137.01C51.442 137.969 50.8287 138.691 50.145 139.176C49.4672 139.66 48.7672 139.922 48.045 139.961C47.3286 139.999 46.6439 139.833 45.9907 139.464C45.5279 139.202 45.1775 138.902 44.9394 138.566C44.705 138.231 44.5507 137.89 44.4764 137.542C44.4042 137.191 44.3816 136.865 44.4086 136.565L44.3358 136.524L41.7312 141.126L39.3463 139.776ZM45.9394 133.573C45.65 134.084 45.4685 134.57 45.3949 135.031C45.3212 135.492 45.3586 135.905 45.5069 136.27C45.6573 136.631 45.9247 136.921 46.3091 137.138C46.6973 137.358 47.0859 137.437 47.4751 137.377C47.8663 137.312 48.2387 137.129 48.5923 136.826C48.9517 136.522 49.2729 136.12 49.556 135.62C49.8369 135.124 50.015 134.648 50.0903 134.193C50.1655 133.738 50.129 133.328 49.9807 132.963C49.8324 132.598 49.5623 132.305 49.1704 132.083C48.7823 131.863 48.3957 131.78 48.0108 131.833C47.6296 131.888 47.2615 132.064 46.9063 132.361C46.5511 132.658 46.2288 133.062 45.9394 133.573Z" fill="#FF70B5"/>
<path d="M60.8657 131.553L56.2594 143.896L53.6919 142.938L58.2983 130.595L60.8657 131.553Z" fill="#FF70B5"/>
<path d="M63.58 146.233C62.9632 146.103 62.4361 145.88 61.9987 145.564C61.5622 145.244 61.248 144.843 61.0563 144.359C60.8697 143.873 60.8436 143.311 60.9782 142.673C61.0916 142.136 61.2853 141.706 61.5596 141.382C61.8338 141.059 62.1644 140.822 62.5512 140.671C62.938 140.52 63.3595 140.434 63.8156 140.412C64.2759 140.391 64.7501 140.407 65.2382 140.462C65.8129 140.522 66.2776 140.563 66.6323 140.585C66.9879 140.603 67.2544 140.576 67.4318 140.504C67.6092 140.432 67.7196 140.293 67.763 140.088L67.7709 140.05C67.855 139.651 67.7942 139.316 67.5885 139.045C67.387 138.774 67.0575 138.591 66.6001 138.494C66.1176 138.393 65.711 138.419 65.3805 138.572C65.0509 138.722 64.8063 138.946 64.6467 139.246L62.2093 138.521C62.4591 137.96 62.8138 137.505 63.2734 137.155C63.7338 136.8 64.2801 136.569 64.912 136.462C65.5491 136.351 66.2536 136.377 67.0257 136.54C67.5629 136.653 68.0636 136.824 68.528 137.054C68.9966 137.284 69.3939 137.572 69.72 137.917C70.0503 138.263 70.2828 138.667 70.4175 139.129C70.5531 139.587 70.5603 140.104 70.439 140.678L69.0631 147.199L66.5202 146.663L66.8031 145.322L66.7276 145.306C66.5086 145.576 66.2446 145.798 65.9358 145.974C65.6278 146.146 65.2775 146.258 64.885 146.311C64.4934 146.36 64.0584 146.334 63.58 146.233ZM64.7384 144.545C65.1328 144.628 65.4975 144.624 65.8324 144.532C66.1682 144.436 66.4504 144.272 66.6791 144.04C66.9078 143.808 67.058 143.522 67.1297 143.182L67.3462 142.156C67.2508 142.193 67.1248 142.219 66.9682 142.234C66.8166 142.246 66.6467 142.252 66.4583 142.251C66.2708 142.247 66.0837 142.24 65.897 142.232C65.7113 142.219 65.5428 142.207 65.3915 142.197C65.067 142.177 64.7767 142.192 64.5204 142.244C64.2642 142.295 64.0529 142.393 63.8865 142.537C63.721 142.678 63.6117 142.874 63.5586 143.125C63.4816 143.49 63.5549 143.797 63.7785 144.046C64.0072 144.292 64.3272 144.458 64.7384 144.545Z" fill="#FF70B5"/>
<path d="M78.1474 148.004C77.1354 147.989 76.2683 147.76 75.5461 147.32C74.8282 146.876 74.2801 146.267 73.9019 145.493C73.528 144.719 73.3489 143.833 73.3646 142.834C73.3804 141.822 73.5894 140.937 73.9916 140.18C74.3981 139.419 74.9671 138.829 75.6985 138.412C76.4299 137.99 77.2952 137.787 78.2943 137.803C79.1562 137.816 79.9085 137.985 80.5511 138.308C81.1936 138.631 81.6992 139.079 82.0677 139.651C82.4362 140.222 82.6337 140.89 82.6604 141.654L80.0747 141.614C80.0095 141.119 79.8227 140.72 79.5144 140.415C79.2104 140.105 78.8076 139.947 78.3059 139.939C77.8814 139.932 77.5087 140.042 77.1877 140.269C76.8711 140.491 76.6215 140.82 76.4388 141.254C76.2562 141.689 76.16 142.217 76.1502 142.839C76.1404 143.469 76.2177 144.007 76.3823 144.451C76.5512 144.895 76.7925 145.236 77.1062 145.472C77.4199 145.709 77.789 145.831 78.2135 145.837C78.5266 145.842 78.8084 145.782 79.0592 145.657C79.3142 145.533 79.5251 145.35 79.6918 145.108C79.863 144.862 79.977 144.565 80.0339 144.219L82.6196 144.259C82.5649 145.013 82.3486 145.675 81.9709 146.244C81.5974 146.808 81.0866 147.246 80.4384 147.558C79.7901 147.869 79.0265 148.018 78.1474 148.004Z" fill="#FF70B5"/>
<path d="M91.5634 146.888C90.5633 147.069 89.6658 147.023 88.8707 146.749C88.0791 146.47 87.4214 145.992 86.8977 145.315C86.3732 144.635 86.0179 143.782 85.8318 142.756C85.6504 141.756 85.6852 140.843 85.9364 140.018C86.1875 139.192 86.6272 138.504 87.2553 137.954C87.8876 137.404 88.6806 137.042 89.6343 136.869C90.2757 136.752 90.8915 136.747 91.4818 136.854C92.0755 136.955 92.6163 137.173 93.1041 137.507C93.5961 137.841 94.0145 138.297 94.3591 138.875C94.703 139.449 94.9499 140.149 95.1 140.977L95.2344 141.717L87.025 143.207L86.7218 141.536L92.393 140.507C92.3226 140.118 92.1758 139.79 91.9527 139.521C91.7295 139.252 91.4528 139.06 91.1226 138.946C90.7958 138.826 90.4362 138.802 90.0438 138.873C89.6345 138.948 89.2888 139.109 89.0068 139.356C88.7282 139.598 88.5291 139.894 88.4093 140.242C88.2887 140.587 88.2611 140.951 88.3266 141.336L88.6149 142.925C88.7022 143.406 88.8662 143.805 89.107 144.123C89.352 144.441 89.6562 144.664 90.0198 144.795C90.3834 144.925 90.791 144.949 91.2425 144.867C91.5421 144.813 91.8087 144.721 92.0423 144.591C92.276 144.462 92.4661 144.296 92.6127 144.095C92.7593 143.894 92.8568 143.663 92.9052 143.402L95.4289 143.114C95.4111 143.736 95.2465 144.306 94.9352 144.825C94.6274 145.338 94.1881 145.775 93.6172 146.136C93.0497 146.492 92.3651 146.742 91.5634 146.888Z" fill="#FF70B5"/>
<path d="M100.407 144.854L96.3987 135.823L98.7859 134.764L99.4931 136.357L99.5989 136.31C99.5522 135.697 99.6805 135.141 99.9838 134.64C100.287 134.14 100.745 133.754 101.356 133.482C101.975 133.207 102.571 133.128 103.144 133.245C103.715 133.357 104.189 133.644 104.567 134.105L104.661 134.063C104.616 133.464 104.766 132.903 105.11 132.379C105.457 131.85 105.962 131.438 106.624 131.144C107.467 130.77 108.27 130.735 109.034 131.039C109.8 131.337 110.4 131.976 110.835 132.956L113.531 139.03L111.032 140.139L108.555 134.559C108.333 134.057 108.032 133.74 107.654 133.608C107.277 133.475 106.888 133.497 106.488 133.675C106.033 133.877 105.743 134.179 105.617 134.582C105.489 134.982 105.529 135.416 105.738 135.887L108.186 141.402L105.758 142.48L103.258 136.847C103.061 136.404 102.777 136.108 102.406 135.958C102.038 135.807 101.649 135.823 101.237 136.005C100.959 136.129 100.739 136.311 100.579 136.551C100.42 136.786 100.332 137.057 100.314 137.365C100.294 137.67 100.358 137.988 100.506 138.322L102.912 143.743L100.407 144.854Z" fill="#FF70B5"/>
<path d="M121.257 133.659C120.452 134.279 119.633 134.649 118.801 134.77C117.969 134.885 117.166 134.762 116.39 134.401C115.612 134.037 114.905 133.442 114.269 132.616C113.65 131.81 113.262 130.983 113.106 130.134C112.951 129.285 113.026 128.472 113.332 127.696C113.642 126.916 114.18 126.231 114.948 125.64C115.465 125.242 116.01 124.956 116.583 124.78C117.158 124.597 117.738 124.543 118.325 124.616C118.915 124.687 119.496 124.9 120.067 125.256C120.636 125.608 121.177 126.118 121.689 126.784L122.148 127.38L115.536 132.469L114.501 131.123L119.068 127.608C118.828 127.295 118.547 127.07 118.225 126.934C117.903 126.797 117.569 126.753 117.224 126.803C116.878 126.847 116.548 126.99 116.232 127.234C115.902 127.487 115.669 127.789 115.531 128.138C115.395 128.481 115.354 128.835 115.407 129.2C115.458 129.561 115.6 129.898 115.835 130.21L116.82 131.489C117.118 131.877 117.447 132.156 117.807 132.329C118.17 132.498 118.543 132.558 118.926 132.506C119.309 132.455 119.682 132.29 120.046 132.01C120.287 131.824 120.482 131.62 120.63 131.398C120.778 131.176 120.871 130.942 120.909 130.696C120.947 130.45 120.928 130.2 120.851 129.945L122.962 128.532C123.231 129.093 123.346 129.675 123.308 130.279C123.27 130.876 123.08 131.466 122.738 132.049C122.397 132.625 121.903 133.162 121.257 133.659Z" fill="#FF70B5"/>
<path d="M125.427 121.905L129.733 125.658L127.933 127.724L120.484 121.233L122.2 119.264L123.514 120.409L123.59 120.322C123.301 119.779 123.199 119.204 123.285 118.596C123.367 117.986 123.65 117.404 124.132 116.851C124.582 116.334 125.089 115.982 125.65 115.794C126.212 115.607 126.796 115.589 127.402 115.742C128.005 115.892 128.596 116.22 129.175 116.724L133.918 120.857L132.117 122.923L127.743 119.111C127.29 118.711 126.833 118.517 126.372 118.53C125.907 118.541 125.495 118.753 125.134 119.167C124.892 119.445 124.737 119.743 124.671 120.061C124.608 120.375 124.638 120.692 124.764 121.012C124.889 121.325 125.11 121.623 125.427 121.905Z" fill="#FF70B5"/>
<path d="M130.812 107.399L132.569 108.471L129.472 113.551L127.714 112.48L130.812 107.399ZM126.396 110.094L127.823 107.754L135.688 112.55C135.904 112.681 136.093 112.751 136.254 112.759C136.411 112.764 136.549 112.723 136.668 112.635C136.789 112.543 136.898 112.418 136.994 112.261C137.061 112.151 137.119 112.036 137.167 111.915C137.213 111.791 137.247 111.697 137.272 111.632L139.238 112.325C139.203 112.465 139.144 112.655 139.063 112.897C138.984 113.14 138.858 113.418 138.684 113.728C138.362 114.305 137.985 114.754 137.554 115.074C137.126 115.39 136.658 115.555 136.153 115.568C135.648 115.581 135.12 115.418 134.569 115.077L126.396 110.094Z" fill="#FF70B5"/>
</svg>
