<svg width="15" height="16" viewBox="0 0 15 16" fill="none" xmlns="http://www.w3.org/2000/svg">
<g clip-path="url(#clip0_2681_3061)">
<path d="M7.28945 9.48047C5.18438 9.48047 3.4082 9.82445 3.4082 11.152C3.4082 12.4801 5.19585 12.812 7.28945 12.812C9.39453 12.812 11.1707 12.4681 11.1707 11.1405C11.1707 9.81236 9.38306 9.48047 7.28945 9.48047Z" fill="#6F767E"/>
<path opacity="0.4" d="M7.29104 8.2171C8.71646 8.2171 9.85942 7.06757 9.85942 5.63394C9.85942 4.19977 8.71646 3.05078 7.29104 3.05078C5.86562 3.05078 4.72266 4.19977 4.72266 5.63394C4.72266 7.06757 5.86562 8.2171 7.29104 8.2171Z" fill="#6F767E"/>
<path opacity="0.4" d="M12.8672 6.23593C13.236 4.78527 12.1548 3.48242 10.778 3.48242C10.6283 3.48242 10.4851 3.49891 10.3453 3.52693C10.3267 3.53133 10.3059 3.54067 10.295 3.55715C10.2824 3.57803 10.2917 3.60606 10.3054 3.62419C10.719 4.20775 10.9566 4.91824 10.9566 5.68094C10.9566 6.41176 10.7386 7.09313 10.3562 7.65856C10.3168 7.71681 10.3518 7.79538 10.4212 7.80747C10.5174 7.82451 10.6157 7.8333 10.7162 7.83605C11.7188 7.86242 12.6186 7.21347 12.8672 6.23593Z" fill="#6F767E"/>
<path d="M13.9164 9.6498C13.7328 9.25636 13.2898 8.98656 12.6161 8.85414C12.2981 8.77611 11.4376 8.66621 10.6372 8.68105C10.6252 8.68269 10.6187 8.69094 10.6176 8.69643C10.6159 8.70412 10.6192 8.71731 10.6351 8.72555C11.0049 8.90963 12.4347 9.71024 12.255 11.3988C12.2473 11.4719 12.3058 11.5351 12.3784 11.5241C12.7303 11.4736 13.6356 11.2779 13.9164 10.6686C14.0716 10.3466 14.0716 9.97235 13.9164 9.6498Z" fill="#6F767E"/>
<path opacity="0.4" d="M4.29763 3.52693C4.15831 3.49836 4.01462 3.48242 3.86492 3.48242C2.48813 3.48242 1.40691 4.78527 1.77624 6.23593C2.02428 7.21347 2.92411 7.86242 3.92666 7.83605C4.02719 7.8333 4.12608 7.82396 4.22169 7.80747C4.29107 7.79538 4.32604 7.71681 4.2867 7.65856C3.90426 7.09258 3.68627 6.41176 3.68627 5.68094C3.68627 4.91769 3.92448 4.2072 4.33806 3.62419C4.35117 3.60606 4.36101 3.57803 4.34789 3.55715C4.33697 3.54012 4.31675 3.53133 4.29763 3.52693Z" fill="#6F767E"/>
<path d="M2.02592 8.85368C1.35227 8.98611 0.90973 9.25591 0.726157 9.64935C0.570448 9.9719 0.570448 10.3461 0.726157 10.6687C1.00698 11.2775 1.91228 11.4737 2.26412 11.5237C2.33679 11.5347 2.3947 11.472 2.38705 11.3984C2.2073 9.71034 3.6371 8.90973 4.00752 8.72565C4.02282 8.71686 4.0261 8.70422 4.02446 8.69598C4.02336 8.69048 4.01735 8.68224 4.00533 8.68114C3.20439 8.66576 2.34444 8.77566 2.02592 8.85368Z" fill="#6F767E"/>
</g>
<defs>
<clipPath id="clip0_2681_3061">
<rect width="14.6441" height="14.6441" fill="white" transform="translate(0 0.611328)"/>
</clipPath>
</defs>
</svg>
