<svg width="16" height="15" viewBox="0 0 16 15" fill="none" xmlns="http://www.w3.org/2000/svg">
<path opacity="0.4" d="M13.0743 5.22144L12.5553 5.74052L12.0478 5.23302C11.8311 5.01635 11.4807 5.01346 11.2666 5.22756C11.0529 5.44122 11.0554 5.79209 11.272 6.00875L11.7795 6.51625L11.2613 7.03444C11.0472 7.24854 11.0501 7.59896 11.2668 7.81562C11.4835 8.03229 11.8339 8.03518 12.048 7.82108L12.5662 7.30289L13.0741 7.81084C13.2908 8.0275 13.6416 8.02995 13.8553 7.81629C14.0694 7.60219 14.0665 7.25177 13.8499 7.0351L13.3419 6.52716L13.861 6.00808C14.0746 5.79442 14.0722 5.44356 13.8555 5.22689C13.6389 5.01023 13.288 5.00778 13.0743 5.22144Z" fill="#6F767E"/>
<path d="M6.76377 9.27734C4.29516 9.27734 2.1875 9.67202 2.1875 11.2489C2.1875 12.8251 4.28234 13.234 6.76377 13.234C9.23177 13.234 11.34 12.8393 11.34 11.2625C11.34 9.68563 9.24521 9.27734 6.76377 9.27734Z" fill="#6F767E"/>
<path opacity="0.4" d="M6.76437 7.7754C8.44513 7.7754 9.79242 6.41074 9.79242 4.70832C9.79242 3.0059 8.44513 1.64062 6.76437 1.64062C5.08362 1.64062 3.73633 3.0059 3.73633 4.70832C3.73633 6.41074 5.08362 7.7754 6.76437 7.7754Z" fill="#6F767E"/>
</svg>
