<svg width="22" height="22" viewBox="0 0 22 22" fill="none" xmlns="http://www.w3.org/2000/svg">
<g clip-path="url(#clip0_2681_1343)">
<path d="M15.7805 4.40332C15.2977 4.40332 14.9062 4.79475 14.9062 5.2776C14.9062 5.76045 15.2977 6.15189 15.7805 6.15189H19.2777C19.7605 6.15189 20.152 5.76045 20.152 5.2776C20.152 4.79475 19.7605 4.40332 19.2777 4.40332H15.7805Z" fill="#777E91"/>
<path fill-rule="evenodd" clip-rule="evenodd" d="M13.1602 12.2718C13.1602 9.85756 15.1173 7.90039 17.5316 7.90039C19.9458 7.90039 21.903 9.85756 21.903 12.2718V13.1461C21.903 13.629 21.5116 14.0204 21.0287 14.0204H14.9087C14.9087 15.469 16.083 16.6432 17.5316 16.6432C18.1414 16.6432 18.7025 16.4351 19.1479 16.0861C19.3806 15.9038 19.6555 15.7689 19.9512 15.7689C20.7003 15.7689 21.1797 16.5428 20.6556 17.0782C19.8621 17.8887 18.7556 18.3918 17.5316 18.3918C15.1173 18.3918 13.1602 16.4346 13.1602 14.0204V12.2718ZM17.5316 9.64896C16.083 9.64896 14.9087 10.8232 14.9087 12.2718H20.1544C20.1544 10.8232 18.9802 9.64896 17.5316 9.64896Z" fill="#777E91"/>
<path fill-rule="evenodd" clip-rule="evenodd" d="M2.66654 6.15189V9.64902H7.03795C8.00366 9.64902 8.78652 8.86616 8.78652 7.90045C8.78652 6.93475 8.00366 6.15189 7.03795 6.15189H2.66654ZM9.48575 10.3981C10.1334 9.76338 10.5351 8.87884 10.5351 7.90045C10.5351 5.96904 8.96937 4.40332 7.03795 4.40332H2.31682C1.54426 4.40332 0.917969 5.02961 0.917969 5.80217V16.8931C0.917969 17.7208 1.58899 18.3919 2.41674 18.3919H7.03795C9.45222 18.3919 11.4094 16.4347 11.4094 14.0204C11.4094 12.5131 10.6465 11.184 9.48575 10.3981ZM2.66654 11.3976V16.6433H7.03795C8.48651 16.6433 9.6608 15.469 9.6608 14.0204C9.6608 12.5718 8.48651 11.3976 7.03795 11.3976H2.66654Z" fill="#777E91"/>
</g>
<defs>
<clipPath id="clip0_2681_1343">
<rect width="20.9828" height="20.9828" fill="white" transform="translate(0.917969 0.90625)"/>
</clipPath>
</defs>
</svg>
