<svg width="24" height="24" viewBox="0 0 24 24" fill="none" xmlns="http://www.w3.org/2000/svg">
<path fill-rule="evenodd" clip-rule="evenodd" d="M20 5H4C3.44772 5 3 5.44772 3 6V18C3 18.5523 3.44772 19 4 19H20C20.5523 19 21 18.5523 21 18V6C21 5.44772 20.5523 5 20 5ZM4 3C2.34315 3 1 4.34315 1 6V18C1 19.6569 2.34315 21 4 21H20C21.6569 21 23 19.6569 23 18V6C23 4.34315 21.6569 3 20 3H4Z" fill="#777E91"/>
<path d="M8 15.5C8 16.3284 7.32843 17 6.5 17C5.67157 17 5 16.3284 5 15.5C5 14.6716 5.67157 14 6.5 14C7.32843 14 8 14.6716 8 15.5Z" fill="#777E91"/>
<path d="M13 15.5C13 16.3284 12.3284 17 11.5 17C10.6716 17 10 16.3284 10 15.5C10 14.6716 10.6716 14 11.5 14C12.3284 14 13 14.6716 13 15.5Z" fill="#777E91"/>
<path d="M1 8H23V10H1V8Z" fill="#777E91"/>
</svg>
