<svg width="11" height="14" viewBox="0 0 11 14" fill="none" xmlns="http://www.w3.org/2000/svg">
<path opacity="0.4" d="M8.04875 0.832031H2.93492C1.08 0.832031 0 1.91813 0 3.77915V10.0822C0 11.9737 1.08 13.0354 2.93492 13.0354H8.04875C9.93356 13.0354 10.9831 11.9737 10.9831 10.0822V3.77915C10.9831 1.91813 9.93356 0.832031 8.04875 0.832031Z" fill="#6F767E"/>
<path d="M3.10116 9.21636H7.88489C8.12835 9.24077 8.31201 9.44823 8.31201 9.6984C8.31201 9.94185 8.12835 10.1499 7.88489 10.1743H3.10116C2.91811 10.1987 2.74116 10.1072 2.64353 9.95467C2.54591 9.79602 2.54591 9.59467 2.64353 9.44212C2.74116 9.28348 2.91811 9.19806 3.10116 9.21636ZM7.88489 6.43338C8.14726 6.43338 8.36082 6.64755 8.36082 6.90992C8.36082 7.17229 8.14726 7.38585 7.88489 7.38585H3.10116C2.83818 7.38585 2.62523 7.17229 2.62523 6.90992C2.62523 6.64755 2.83818 6.43338 3.10116 6.43338H7.88489ZM4.92496 3.66992C5.18794 3.66992 5.4015 3.88348 5.4015 4.14524C5.4015 4.41433 5.18794 4.62789 4.92496 4.62789H3.10116C2.83818 4.62789 2.62523 4.41433 2.62523 4.15196C2.62523 3.88958 2.83818 3.67602 3.10116 3.67602V3.66992H4.92496Z" fill="#6F767E"/>
</svg>
