<svg width="22" height="22" viewBox="0 0 22 22" fill="none" xmlns="http://www.w3.org/2000/svg">
<path fill-rule="evenodd" clip-rule="evenodd" d="M11.2506 18.3924C15.1135 18.3924 18.2449 15.261 18.2449 11.3981C18.2449 7.53528 15.1135 4.40384 11.2506 4.40384C7.38782 4.40384 4.25638 7.53528 4.25638 11.3981C4.25638 15.261 7.38782 18.3924 11.2506 18.3924ZM11.2506 20.1409C16.0791 20.1409 19.9935 16.2266 19.9935 11.3981C19.9935 6.56957 16.0791 2.65527 11.2506 2.65527C6.42211 2.65527 2.50781 6.56957 2.50781 11.3981C2.50781 16.2266 6.42211 20.1409 11.2506 20.1409Z" fill="#777E91"/>
<path d="M14.2881 19.5991C13.9776 17.387 13.4604 15.3793 12.7324 13.4816C10.9503 14.3456 8.95714 15.8552 6.21647 18.5472C5.73696 18.2089 5.29301 17.8236 4.89132 17.398C7.76978 14.5593 9.96825 12.8622 12.0516 11.8689C11.7843 11.2895 11.4961 10.7184 11.1868 10.1524C8.73404 10.9255 5.93735 11.3328 2.50781 11.391C2.50829 10.7909 2.56926 10.2049 2.68492 9.63877C5.71163 9.57392 8.16007 9.22361 10.2792 8.60099C9.29559 7.02264 8.14271 5.4647 6.81777 3.86097C7.33439 3.55647 7.88506 3.30358 8.46268 3.10938C9.79969 4.75264 10.9711 6.36772 11.9743 8.0194C13.859 7.27447 15.5295 6.26907 17.197 4.98903C17.6257 5.38687 18.0143 5.82717 18.3562 6.30325C16.6218 7.64483 14.8531 8.73218 12.8499 9.55187C13.1447 10.1024 13.4212 10.6591 13.6796 11.224C15.6612 10.5962 17.6118 10.5314 19.9504 10.5247C19.9789 10.812 19.9935 11.1035 19.9935 11.3983C19.9935 11.6937 19.9788 11.9857 19.9502 12.2736C17.6908 12.2817 16.0151 12.3453 14.3604 12.8435C15.0709 14.693 15.5965 16.6484 15.934 18.7822C15.4194 19.1093 14.8683 19.3841 14.2881 19.5991Z" fill="#777E91"/>
</svg>
