<svg width="22" height="22" viewBox="0 0 22 22" fill="none" xmlns="http://www.w3.org/2000/svg">
<path fill-rule="evenodd" clip-rule="evenodd" d="M10.7585 18.3924C14.6213 18.3924 17.7527 15.261 17.7527 11.3981C17.7527 7.53528 14.6213 4.40384 10.7585 4.40384C6.89563 4.40384 3.76419 7.53528 3.76419 11.3981C3.76419 15.261 6.89563 18.3924 10.7585 18.3924ZM10.7585 20.1409C15.587 20.1409 19.5013 16.2266 19.5013 11.3981C19.5013 6.56957 15.587 2.65527 10.7585 2.65527C5.92992 2.65527 2.01562 6.56957 2.01562 11.3981C2.01562 16.2266 5.92992 20.1409 10.7585 20.1409Z" fill="#777E91"/>
<path d="M10.7589 9.64922C10.7589 9.16637 11.1503 8.77493 11.6331 8.77493H12.5074C12.9903 8.77493 13.3817 8.38351 13.3817 7.90065C13.3817 7.4178 12.9903 7.02637 12.5074 7.02637H11.6331C10.1845 7.02637 9.01029 8.20066 9.01029 9.64922V11.3978H8.136C7.65315 11.3978 7.26172 11.7892 7.26172 12.2721C7.26172 12.7549 7.65314 13.1464 8.136 13.1464H9.01029V18.3921C9.01029 18.8749 9.4017 19.2663 9.88457 19.2663C10.3674 19.2663 10.7589 18.8749 10.7589 18.3921V13.1464H12.5074C12.9903 13.1464 13.3817 12.7549 13.3817 12.2721C13.3817 11.7892 12.9903 11.3978 12.5074 11.3978H10.7589V9.64922Z" fill="#777E91"/>
</svg>
