<svg width="40" height="40" viewBox="0 0 40 40" fill="none" xmlns="http://www.w3.org/2000/svg">
<path fill-rule="evenodd" clip-rule="evenodd" d="M31.3633 23.5411C30.336 22.3499 28.5714 22.4113 27.1916 23.1665C25.0564 24.3352 22.6058 24.9997 20 24.9997C17.3942 24.9997 14.9436 24.3352 12.8084 23.1665C11.4286 22.4113 9.66402 22.3499 8.63667 23.5411C6.37037 26.1687 5 29.5908 5 33.333V34.9997C5 36.8406 6.49238 38.333 8.33333 38.333H31.6667C33.5076 38.333 35 36.8406 35 34.9997V33.333C35 29.5908 33.6296 26.1687 31.3633 23.5411Z" fill="#45B36B"/>
<path d="M28.3346 10.0003C28.3346 14.6027 24.6037 18.3337 20.0013 18.3337C15.3989 18.3337 11.668 14.6027 11.668 10.0003C11.668 5.39795 15.3989 1.66699 20.0013 1.66699C24.6037 1.66699 28.3346 5.39795 28.3346 10.0003Z" fill="#45B36B"/>
</svg>
