<svg width="40" height="40" viewBox="0 0 40 40" fill="none" xmlns="http://www.w3.org/2000/svg">
<path d="M6.66797 1.66667C6.66797 0.746193 7.41416 0 8.33464 0C9.25511 0 10.0013 0.746192 10.0013 1.66667V38.3333C10.0013 39.2538 9.25511 40 8.33464 40C7.41416 40 6.66797 39.2538 6.66797 38.3333V1.66667Z" fill="#EF466F"/>
<path d="M23.332 8.33366C23.332 7.41318 24.0782 6.66699 24.9987 6.66699H32.302C33.5409 6.66699 34.3468 7.97085 33.7927 9.07902L30.3714 15.9216C30.1368 16.3908 30.1368 16.9431 30.3714 17.4123L33.7927 24.255C34.3468 25.3631 33.5409 26.667 32.302 26.667H26.6654C24.8244 26.667 23.332 25.1746 23.332 23.3337V8.33366Z" fill="#EF466F"/>
<path d="M13.332 4.99967C13.332 4.0792 14.0782 3.33301 14.9987 3.33301H16.6654C18.5063 3.33301 19.9987 4.82539 19.9987 6.66634V21.6663C19.9987 22.5868 19.2525 23.333 18.332 23.333H14.9987C14.0782 23.333 13.332 22.5868 13.332 21.6663V4.99967Z" fill="#EF466F"/>
</svg>
