<svg width="38" height="37" viewBox="0 0 38 37" fill="none" xmlns="http://www.w3.org/2000/svg">
<g clip-path="url(#clip0_2681_2204)">
<path d="M2.76172 0.0527344L5.04045 32.1622L18.9704 36.7409L32.9003 32.1622L35.1791 0.0527344H2.76172Z" fill="#FF7816"/>
<path d="M35.1813 0.0527344L32.9026 32.1622L18.9727 36.7409V0.0527344H35.1813Z" fill="#FF4B00"/>
<path d="M29.098 9.79744H13.1687L13.5556 15.1717H28.7112L27.7867 28.1843L18.9729 31.1295L10.1591 28.1843L9.85825 23.8421H14.1576L14.2436 25.0245L18.9729 26.5936L23.7022 25.0245L24.0891 19.4711H9.53579L8.54688 5.49805H29.3989L29.098 9.79744Z" fill="white"/>
<path d="M28.711 15.1719L27.7864 28.1845L18.9727 31.1297V26.5938L23.702 25.0247L24.0888 19.4713H18.9727V15.1719H28.711Z" fill="white"/>
<path d="M29.3987 5.49805L29.0978 9.79744H18.9727V5.49805H29.3987Z" fill="white"/>
</g>
<defs>
<clipPath id="clip0_2681_2204">
<rect width="36.6882" height="36.6882" fill="white" transform="translate(0.613281 0.0527344)"/>
</clipPath>
</defs>
</svg>
