<svg width="22" height="22" viewBox="0 0 22 22" fill="none" xmlns="http://www.w3.org/2000/svg">
<path fill-rule="evenodd" clip-rule="evenodd" d="M14.5837 4.40384H7.58945C5.65804 4.40384 4.09232 5.96956 4.09232 7.90097V14.8952C4.09232 16.8266 5.65804 18.3924 7.58945 18.3924H14.5837C16.5151 18.3924 18.0809 16.8266 18.0809 14.8952V7.90097C18.0809 5.96956 16.5151 4.40384 14.5837 4.40384ZM7.58945 2.65527C4.69233 2.65527 2.34375 5.00385 2.34375 7.90097V14.8952C2.34375 17.7924 4.69233 20.1409 7.58945 20.1409H14.5837C17.4808 20.1409 19.8294 17.7924 19.8294 14.8952V7.90097C19.8294 5.00385 17.4808 2.65527 14.5837 2.65527H7.58945Z" fill="#777E91"/>
<path d="M15.4563 7.90091C15.9392 7.90091 16.3306 7.50948 16.3306 7.02663C16.3306 6.54378 15.9392 6.15234 15.4563 6.15234C14.9734 6.15234 14.582 6.54378 14.582 7.02663C14.582 7.50948 14.9734 7.90091 15.4563 7.90091Z" fill="#777E91"/>
<path fill-rule="evenodd" clip-rule="evenodd" d="M15.4538 11.3978C15.4538 13.812 13.4966 15.7692 11.0824 15.7692C8.66809 15.7692 6.71094 13.812 6.71094 11.3978C6.71094 8.98352 8.66809 7.02637 11.0824 7.02637C13.4966 7.02637 15.4538 8.98352 15.4538 11.3978ZM13.7052 11.3978C13.7052 12.8464 12.531 14.0206 11.0824 14.0206C9.63375 14.0206 8.4595 12.8464 8.4595 11.3978C8.4595 9.94918 9.63375 8.77493 11.0824 8.77493C12.531 8.77493 13.7052 9.94918 13.7052 11.3978Z" fill="#777E91"/>
</svg>
