<svg width="38" height="36" viewBox="0 0 38 36" fill="none" xmlns="http://www.w3.org/2000/svg">
<path fill-rule="evenodd" clip-rule="evenodd" d="M8.49874 3.12493C6.05032 3.73704 4.33268 5.93695 4.33268 8.46072V31.6665H2.49935C1.48683 31.6665 0.666016 32.4873 0.666016 33.4998C0.666016 34.5124 1.48683 35.3332 2.49935 35.3332H35.4993C36.5119 35.3332 37.3327 34.5124 37.3327 33.4998C37.3327 32.4873 36.5119 31.6665 35.4993 31.6665H33.666V15.1665C33.666 12.1289 31.2036 9.6665 28.166 9.6665H26.3327V5.71072C26.3327 2.13258 22.97 -0.492893 19.4987 0.374933L8.49874 3.12493ZM29.9993 15.1665V31.6665H26.3327V13.3332H28.166C29.1785 13.3332 29.9993 14.154 29.9993 15.1665ZM13.4993 24.3332C12.4868 24.3332 11.666 25.154 11.666 26.1665C11.666 27.179 12.4868 27.9998 13.4993 27.9998H17.166C18.1785 27.9998 18.9993 27.179 18.9993 26.1665C18.9993 25.154 18.1785 24.3332 17.166 24.3332H13.4993ZM11.666 18.8332C11.666 17.8206 12.4868 16.9998 13.4993 16.9998H17.166C18.1785 16.9998 18.9993 17.8206 18.9993 18.8332C18.9993 19.8457 18.1785 20.6665 17.166 20.6665H13.4993C12.4868 20.6665 11.666 19.8457 11.666 18.8332ZM13.4993 9.6665C12.4868 9.6665 11.666 10.4873 11.666 11.4998C11.666 12.5124 12.4868 13.3332 13.4993 13.3332H17.166C18.1785 13.3332 18.9993 12.5124 18.9993 11.4998C18.9993 10.4873 18.1785 9.6665 17.166 9.6665H13.4993Z" fill="#8E59FF"/>
</svg>
