<svg width="14" height="13" viewBox="0 0 14 13" fill="none" xmlns="http://www.w3.org/2000/svg">
<path opacity="0.4" d="M13.1682 6.43959C13.1682 9.81016 10.4365 12.5413 7.06654 12.5413C3.69657 12.5413 0.964844 9.81016 0.964844 6.43959C0.964844 3.07023 3.69657 0.337891 7.06654 0.337891C10.4365 0.337891 13.1682 3.07023 13.1682 6.43959Z" fill="#8D969E"/>
<path d="M9.24707 8.76755C9.16714 8.76755 9.0866 8.7468 9.01277 8.70348L6.61724 7.27446C6.47934 7.19148 6.39453 7.04199 6.39453 6.8809V3.80138C6.39453 3.54877 6.59955 3.34375 6.85216 3.34375C7.10477 3.34375 7.30979 3.54877 7.30979 3.80138V6.62097L9.48199 7.91636C9.6986 8.04633 9.76999 8.327 9.64063 8.54422C9.5546 8.68761 9.40267 8.76755 9.24707 8.76755Z" fill="#8D969E"/>
</svg>
