<svg width="22" height="22" viewBox="0 0 22 22" fill="none" xmlns="http://www.w3.org/2000/svg">
<path fill-rule="evenodd" clip-rule="evenodd" d="M3.2157 13.1462C1.76988 13.1503 0.83657 14.7974 1.72729 16.0453C3.00288 17.8322 5.31602 19.2664 9.17775 19.2664C15.1623 19.2664 19.9661 14.3894 19.2936 8.62733L20.2789 6.65687C20.9621 5.29035 19.7749 3.73582 18.2767 4.03545L16.975 4.29577C16.63 4.11369 16.2728 3.97629 15.9676 3.87675C15.3727 3.68275 14.6528 3.5293 13.9863 3.5293C12.7892 3.5293 11.7559 3.83644 10.9348 4.45248C10.123 5.0616 9.66577 5.8621 9.41485 6.5972C9.29919 6.93604 9.22216 7.2759 9.17274 7.60209C8.70826 7.4559 8.23465 7.25922 7.77098 7.01904C6.71904 6.47416 5.86841 5.78339 5.38856 5.17777C4.58349 4.16167 2.87738 4.237 2.27869 5.55782C1.43488 7.41939 1.66635 9.62608 2.42483 11.4091C2.67905 12.0067 3.00975 12.5975 3.41376 13.1449C3.3446 13.1457 3.27843 13.1461 3.2157 13.1462ZM9.17766 17.5178C5.80001 17.5178 4.05348 16.2944 3.15039 15.0294C3.10981 14.9725 3.15073 14.895 3.22056 14.8948C4.13929 14.8922 6.02512 14.8487 7.26887 14.1208C7.33319 14.0831 7.31904 13.9883 7.2484 13.9646C4.34912 12.9897 2.70107 8.86119 3.8712 6.2797C3.89803 6.22052 3.97759 6.21271 4.01795 6.26365C5.35462 7.95071 8.27718 9.60312 10.8199 9.64833C10.8751 9.64928 10.9168 9.59918 10.9084 9.54466C10.8059 8.88037 10.4147 5.27786 13.9862 5.27786C14.8391 5.27786 16.108 5.69387 16.5754 6.12006C16.597 6.13976 16.6263 6.1487 16.655 6.14297L18.6195 5.75006C18.6908 5.7358 18.7474 5.80982 18.7149 5.87489L17.4964 8.31179C17.4879 8.32871 17.4853 8.34813 17.4885 8.36676C18.3419 13.1639 14.4129 17.5178 9.17766 17.5178Z" fill="#777E91"/>
</svg>
